HIERARCHY
ROOT mixamorig:Hips
{
	OFFSET -0.000008 104.274872 1.554316
	CHANNELS 6 Xposition Yposition Zposition Xrotation Yrotation Zrotation
	JOINT mixamorig:Spine
	{
		OFFSET -0.000005 10.181587 0.131521
		CHANNELS 6 Xposition Yposition Zposition Xrotation Yrotation Zrotation
		JOINT mixamorig:Spine1
		{
			OFFSET -0.000000 9.893967 -1.470711
			CHANNELS 3 Xrotation Yrotation Zrotation
			JOINT mixamorig:Spine2
			{
				OFFSET -0.000000 9.220772 -1.370643
				CHANNELS 3 Xrotation Yrotation Zrotation
				JOINT mixamorig:Neck
				{
					OFFSET 0.000001 16.740387 -2.049035
					CHANNELS 6 Xposition Yposition Zposition Xrotation Yrotation Zrotation
					JOINT mixamorig:Head
					{
						OFFSET 0.000000 9.617889 1.685008
						CHANNELS 6 Xposition Yposition Zposition Xrotation Yrotation Zrotation
						JOINT mixamorig:HeadTop_End
						{
							OFFSET 0.000002 22.037369 7.501095
							CHANNELS 6 Xposition Yposition Zposition Xrotation Yrotation Zrotation
							End Site
							{
								OFFSET 0.000002 23.106552 -2.828258
							}
						}
					}
				}
				JOINT mixamorig:RightShoulder
				{
					OFFSET -4.569969 11.014908 -2.160884
					CHANNELS 6 Xposition Yposition Zposition Xrotation Yrotation Zrotation
					JOINT mixamorig:RightArm
					{
						OFFSET -10.592846 -0.524811 -2.232097
						CHANNELS 3 Xrotation Yrotation Zrotation
						JOINT mixamorig:RightForeArm
						{
							OFFSET -27.841518 0.000000 -0.000004
							CHANNELS 3 Xrotation Yrotation Zrotation
							JOINT mixamorig:RightHand
							{
								OFFSET -28.328838 0.000000 0.000019
								CHANNELS 3 Xrotation Yrotation Zrotation
								JOINT mixamorig:RightHandThumb1
								{
									OFFSET -2.464806 -1.573990 2.681852
									CHANNELS 6 Xposition Yposition Zposition Xrotation Yrotation Zrotation
									JOINT mixamorig:RightHandThumb2
									{
										OFFSET -3.215187 -1.872772 1.924281
										CHANNELS 3 Xrotation Yrotation Zrotation
										JOINT mixamorig:RightHandThumb3
										{
											OFFSET -2.654839 -1.527985 1.512611
											CHANNELS 3 Xrotation Yrotation Zrotation
											JOINT mixamorig:RightHandThumb4
											{
												OFFSET -2.018822 -1.152008 1.108052
												CHANNELS 3 Xrotation Yrotation Zrotation
												End Site
												{
													OFFSET -1.888100 -1.145340 1.324313
												}
											}
										}
									}
								}
								JOINT mixamorig:RightHandIndex1
								{
									OFFSET -9.108284 -0.517868 2.259834
									CHANNELS 6 Xposition Yposition Zposition Xrotation Yrotation Zrotation
									JOINT mixamorig:RightHandIndex2
									{
										OFFSET -3.699997 0.000015 0.001215
										CHANNELS 3 Xrotation Yrotation Zrotation
										JOINT mixamorig:RightHandIndex3
										{
											OFFSET -2.850006 0.000000 -0.000521
											CHANNELS 3 Xrotation Yrotation Zrotation
											JOINT mixamorig:RightHandIndex4
											{
												OFFSET -2.772186 0.000000 -0.000020
												CHANNELS 3 Xrotation Yrotation Zrotation
												End Site
												{
													OFFSET -2.772186 0.000000 -0.000502
												}
											}
										}
									}
								}
								JOINT mixamorig:RightHandMiddle1
								{
									OFFSET -9.532501 -0.000046 -0.000025
									CHANNELS 6 Xposition Yposition Zposition Xrotation Yrotation Zrotation
									JOINT mixamorig:RightHandMiddle2
									{
										OFFSET -3.699997 0.000015 0.003713
										CHANNELS 3 Xrotation Yrotation Zrotation
										JOINT mixamorig:RightHandMiddle3
										{
											OFFSET -2.949997 0.000000 -0.002054
											CHANNELS 3 Xrotation Yrotation Zrotation
											JOINT mixamorig:RightHandMiddle4
											{
												OFFSET -2.946632 0.000015 -0.000155
												CHANNELS 3 Xrotation Yrotation Zrotation
												End Site
												{
													OFFSET -2.946625 0.000000 -0.001135
												}
											}
										}
									}
								}
								JOINT mixamorig:RightHandRing1
								{
									OFFSET -9.103592 -0.043076 -1.865134
									CHANNELS 6 Xposition Yposition Zposition Xrotation Yrotation Zrotation
									JOINT mixamorig:RightHandRing2
									{
										OFFSET -3.379272 0.000000 -0.001054
										CHANNELS 3 Xrotation Yrotation Zrotation
										JOINT mixamorig:RightHandRing3
										{
											OFFSET -2.889687 0.000000 0.000379
											CHANNELS 3 Xrotation Yrotation Zrotation
											JOINT mixamorig:RightHandRing4
											{
												OFFSET -2.638817 0.000000 0.000942
												CHANNELS 3 Xrotation Yrotation Zrotation
												End Site
												{
													OFFSET -2.638802 0.000000 0.005160
												}
											}
										}
									}
								}
								JOINT mixamorig:RightHandPinky1
								{
									OFFSET -8.076675 -0.486710 -3.806279
									CHANNELS 6 Xposition Yposition Zposition Xrotation Yrotation Zrotation
									JOINT mixamorig:RightHandPinky2
									{
										OFFSET -3.599998 -0.000031 -0.003747
										CHANNELS 3 Xrotation Yrotation Zrotation
										JOINT mixamorig:RightHandPinky3
										{
											OFFSET -2.099991 -0.000015 -0.005740
											CHANNELS 3 Xrotation Yrotation Zrotation
											JOINT mixamorig:RightHandPinky4
											{
												OFFSET -2.115776 -0.000015 -0.003680
												CHANNELS 3 Xrotation Yrotation Zrotation
												End Site
												{
													OFFSET -2.115784 -0.000015 -0.003507
												}
											}
										}
									}
								}
							}
						}
					}
				}
				JOINT mixamorig:LeftShoulder
				{
					OFFSET 4.570447 11.014709 -2.160855
					CHANNELS 6 Xposition Yposition Zposition Xrotation Yrotation Zrotation
					JOINT mixamorig:LeftArm
					{
						OFFSET 10.592369 -0.524597 -2.232120
						CHANNELS 3 Xrotation Yrotation Zrotation
						JOINT mixamorig:LeftForeArm
						{
							OFFSET 27.841522 -0.000031 0.000023
							CHANNELS 3 Xrotation Yrotation Zrotation
							JOINT mixamorig:LeftHand
							{
								OFFSET 28.328835 -0.000031 0.000018
								CHANNELS 3 Xrotation Yrotation Zrotation
								JOINT mixamorig:LeftHandThumb1
								{
									OFFSET 2.466141 -1.576187 2.681734
									CHANNELS 6 Xposition Yposition Zposition Xrotation Yrotation Zrotation
									JOINT mixamorig:LeftHandThumb2
									{
										OFFSET 3.217804 -1.872055 1.916487
										CHANNELS 3 Xrotation Yrotation Zrotation
										JOINT mixamorig:LeftHandThumb3
										{
											OFFSET 2.656013 -1.528809 1.514505
											CHANNELS 3 Xrotation Yrotation Zrotation
											JOINT mixamorig:LeftHandThumb4
											{
												OFFSET 2.020889 -1.154068 1.115134
												CHANNELS 3 Xrotation Yrotation Zrotation
												End Site
												{
													OFFSET 1.908852 -1.150833 1.300489
												}
											}
										}
									}
								}
								JOINT mixamorig:LeftHandIndex1
								{
									OFFSET 9.109306 -0.518036 2.259871
									CHANNELS 6 Xposition Yposition Zposition Xrotation Yrotation Zrotation
									JOINT mixamorig:LeftHandIndex2
									{
										OFFSET 3.699997 -0.000015 -0.000323
										CHANNELS 3 Xrotation Yrotation Zrotation
										JOINT mixamorig:LeftHandIndex3
										{
											OFFSET 2.850006 -0.000015 0.000350
											CHANNELS 3 Xrotation Yrotation Zrotation
											JOINT mixamorig:LeftHandIndex4
											{
												OFFSET 2.774864 0.000000 -0.000027
												CHANNELS 3 Xrotation Yrotation Zrotation
												End Site
												{
													OFFSET 2.774872 -0.000015 -0.000099
												}
											}
										}
									}
								}
								JOINT mixamorig:LeftHandMiddle1
								{
									OFFSET 9.533401 0.000031 0.000044
									CHANNELS 6 Xposition Yposition Zposition Xrotation Yrotation Zrotation
									JOINT mixamorig:LeftHandMiddle2
									{
										OFFSET 3.699997 -0.000015 -0.000231
										CHANNELS 3 Xrotation Yrotation Zrotation
										JOINT mixamorig:LeftHandMiddle3
										{
											OFFSET 2.950005 0.000000 -0.000060
											CHANNELS 3 Xrotation Yrotation Zrotation
											JOINT mixamorig:LeftHandMiddle4
											{
												OFFSET 2.952858 0.000000 0.000063
												CHANNELS 3 Xrotation Yrotation Zrotation
												End Site
												{
													OFFSET 2.952866 0.000000 0.000228
												}
											}
										}
									}
								}
								JOINT mixamorig:LeftHandRing1
								{
									OFFSET 9.104530 -0.043030 -1.865074
									CHANNELS 6 Xposition Yposition Zposition Xrotation Yrotation Zrotation
									JOINT mixamorig:LeftHandRing2
									{
										OFFSET 3.150002 -0.000015 0.000042
										CHANNELS 3 Xrotation Yrotation Zrotation
										JOINT mixamorig:LeftHandRing3
										{
											OFFSET 2.949997 0.000000 0.000037
											CHANNELS 3 Xrotation Yrotation Zrotation
											JOINT mixamorig:LeftHandRing4
											{
												OFFSET 2.644318 -0.000015 0.000059
												CHANNELS 3 Xrotation Yrotation Zrotation
												End Site
												{
													OFFSET 2.644318 0.000000 0.000121
												}
											}
										}
									}
								}
								JOINT mixamorig:LeftHandPinky1
								{
									OFFSET 8.077782 -0.486877 -3.806256
									CHANNELS 6 Xposition Yposition Zposition Xrotation Yrotation Zrotation
									JOINT mixamorig:LeftHandPinky2
									{
										OFFSET 3.599968 0.000031 0.014726
										CHANNELS 3 Xrotation Yrotation Zrotation
										JOINT mixamorig:LeftHandPinky3
										{
											OFFSET 2.099991 0.000015 0.007705
											CHANNELS 3 Xrotation Yrotation Zrotation
											JOINT mixamorig:LeftHandPinky4
											{
												OFFSET 2.125511 0.000015 0.007514
												CHANNELS 3 Xrotation Yrotation Zrotation
												End Site
												{
													OFFSET 2.125526 0.000015 0.006258
												}
											}
										}
									}
								}
							}
						}
					}
				}
			}
		}
	}
	JOINT mixamorig:RightUpLeg
	{
		OFFSET -8.207787 -6.751671 -1.599560
		CHANNELS 6 Xposition Yposition Zposition Xrotation Yrotation Zrotation
		JOINT mixamorig:RightLeg
		{
			OFFSET -0.000001 -44.370113 0.345939
			CHANNELS 3 Xrotation Yrotation Zrotation
			JOINT mixamorig:RightFoot
			{
				OFFSET 0.000001 -44.423676 -3.043536
				CHANNELS 3 Xrotation Yrotation Zrotation
				JOINT mixamorig:RightToeBase
				{
					OFFSET -0.000003 -8.728670 10.710561
					CHANNELS 3 Xrotation Yrotation Zrotation
					JOINT mixamorig:RightToe_End
					{
						OFFSET -0.000003 -0.000677 9.278120
						CHANNELS 3 Xrotation Yrotation Zrotation
						End Site
						{
							OFFSET -0.000003 -0.000677 9.278120
						}
					}
				}
			}
		}
	}
	JOINT mixamorig:LeftUpLeg
	{
		OFFSET 8.207791 -6.751701 -1.599555
		CHANNELS 6 Xposition Yposition Zposition Xrotation Yrotation Zrotation
		JOINT mixamorig:LeftLeg
		{
			OFFSET -0.000002 -44.370033 0.346958
			CHANNELS 3 Xrotation Yrotation Zrotation
			JOINT mixamorig:LeftFoot
			{
				OFFSET 0.000000 -44.423653 -3.044392
				CHANNELS 3 Xrotation Yrotation Zrotation
				JOINT mixamorig:LeftToeBase
				{
					OFFSET -0.000003 -8.728668 10.710560
					CHANNELS 3 Xrotation Yrotation Zrotation
					JOINT mixamorig:LeftToe_End
					{
						OFFSET -0.000003 -0.000677 9.278137
						CHANNELS 3 Xrotation Yrotation Zrotation
						End Site
						{
							OFFSET -0.000003 -0.000677 9.278137
						}
					}
				}
			}
		}
	}
}
MOTION
Frames: 4
Frame Time: 0.033333
0.131545 102.017960 6.244977 -7.313087 10.164536 4.040722 -0.000004 10.181575 0.131519 13.132364 0.534937 -0.992301 1.653501 0.170431 0.452087 1.652926 0.174036 0.449313 0.000000 16.740374 -2.049034 1.669413 -3.125317 0.419433 0.000002 9.617895 1.685005 -3.069905 -5.607673 -3.167638 0.000002 22.037354 7.501101 -0.000000 0.000000 0.000000 -4.569972 11.014918 -2.160882 0.011273 9.636423 20.279515 -22.205746 -10.905039 52.987149 -0.000000 14.445036 -0.000005 33.433260 2.281204 7.286406 -2.464803 -1.573968 2.681846 -4.475986 -0.610254 -7.042050 12.025263 -29.216298 -3.995124 -5.197446 -7.457715 -15.184521 -0.000002 -0.000010 -0.000003 -9.108276 -0.517863 2.259834 0.247390 -3.630325 16.569522 0.715672 -2.463975 32.284607 0.093028 -0.937722 11.463521 -0.000001 -0.000003 -0.000005 -9.532486 -0.000042 -0.000023 0.484909 -4.251957 24.283409 0.701194 -2.402492 32.313376 0.087834 -0.941125 11.169850 0.000000 -0.000001 0.000002 -9.103582 -0.043071 -1.865133 0.581139 -4.445182 27.864342 0.728914 -2.521573 32.368260 0.090092 -0.905323 11.027869 -0.000000 0.000001 0.000007 -8.076666 -0.486711 -3.806273 0.618316 -4.515317 29.352308 0.644709 -2.430923 32.454382 0.059775 -0.907800 10.483149 -0.000004 0.000005 -0.000003 4.570447 11.014719 -2.160856 0.931490 3.909897 -15.013420 21.455514 -17.786615 -46.931319 0.000304 -100.159342 0.000445 -21.379757 -12.394293 -1.582660 2.466131 -1.576205 2.681728 2.634893 0.552845 10.854929 4.347692 25.812646 15.611133 -10.012276 -13.921525 9.289635 0.000002 0.000005 -0.000001 9.109327 -0.518059 2.259867 2.073758 6.783300 -45.456948 9.011941 4.931303 -122.675853 1.126966 3.449164 -36.116384 -0.000001 0.000001 -0.000010 9.533431 0.000009 0.000036 -2.065581 2.712573 -45.510923 9.013971 4.928598 -122.779890 1.110313 3.434480 -35.822174 0.000001 0.000000 -0.000001 9.104542 -0.043060 -1.865081 2.937861 7.408124 -55.135623 9.022478 4.918849 -122.860200 1.101467 3.420292 -35.678658 0.000000 -0.000004 0.000001 8.077800 -0.486882 -3.806264 -3.383277 3.654509 -59.434237 8.171821 5.143557 -111.338668 2.130995 4.314404 -48.525550 -0.000000 0.000004 -0.000000 -8.207786 -6.751689 -1.599559 -3.541940 -0.362830 -0.282109 23.849509 -9.962250 0.106245 -13.368460 -2.571727 -0.329152 -2.003098 -0.000000 -0.000000 0.000000 -0.000000 -0.000000 8.207793 -6.751721 -1.599553 -14.022425 -1.754245 -0.135767 52.807495 -4.671472 -0.362039 2.449084 4.008743 -10.337467 -5.292927 -0.001191 0.342546 0.000001 -0.000000 -0.000000 
0.366997 102.286987 8.875973 -7.209558 10.084520 4.923916 -0.000006 10.181574 0.131521 12.897086 1.149441 -1.754828 1.588525 0.274211 0.140375 1.587025 0.275582 0.134318 0.000002 16.740414 -2.049037 1.956330 -3.114283 0.217438 -0.000000 9.617914 1.685006 -1.435493 -5.210779 -3.410153 0.000003 22.037369 7.501097 -0.000001 -0.000000 0.000000 -4.569973 11.014901 -2.160883 0.032491 9.847532 19.553358 -22.248115 -8.545846 53.440073 0.000011 15.558812 -0.000006 34.194816 2.432590 8.264876 -2.464793 -1.573979 2.681841 -4.475990 -0.610255 -7.042055 12.025261 -29.216302 -3.995126 -5.197444 -7.457721 -15.184518 -0.000002 -0.000005 0.000002 -9.108283 -0.517863 2.259832 0.247388 -3.630329 16.569527 0.715667 -2.463976 32.284603 0.093030 -0.937727 11.463525 -0.000000 -0.000003 -0.000006 -9.532494 -0.000058 -0.000031 0.484906 -4.251958 24.283414 0.701199 -2.402492 32.313369 0.087828 -0.941126 11.169845 0.000002 0.000002 0.000000 -9.103581 -0.043079 -1.865137 0.581138 -4.445190 27.864349 0.728916 -2.521576 32.368249 0.090093 -0.905329 11.027865 -0.000002 0.000004 -0.000006 -8.076681 -0.486710 -3.806282 0.618320 -4.515321 29.352308 0.644717 -2.430925 32.454385 0.059777 -0.907790 10.483146 0.000001 0.000003 -0.000001 4.570448 11.014717 -2.160856 0.953748 4.070993 -15.232603 21.473176 -17.594048 -47.119231 0.000315 -100.391165 0.000439 -20.317567 -12.962498 -0.636886 2.466126 -1.576191 2.681732 2.634891 0.552838 10.854929 4.347695 25.812647 15.611126 -10.012272 -13.921518 9.289638 0.000000 0.000000 -0.000006 9.109324 -0.518059 2.259866 2.073758 6.783300 -45.456941 9.011943 4.931300 -122.675839 1.126968 3.449163 -36.116387 0.000001 0.000001 -0.000013 9.533423 0.000013 0.000040 -2.065582 2.712573 -45.510923 9.013971 4.928595 -122.779890 1.110312 3.434479 -35.822177 0.000001 0.000000 0.000000 9.104546 -0.043060 -1.865082 2.937862 7.408122 -55.135623 9.022476 4.918846 -122.860200 1.101466 3.420291 -35.678647 -0.000000 0.000000 -0.000006 8.077792 -0.486889 -3.806261 -3.383278 3.654509 -59.434237 8.171818 5.143555 -111.338668 2.130994 4.314408 -48.525554 -0.000000 0.000004 0.000001 -8.207788 -6.751686 -1.599560 -1.031107 -1.321849 -1.408260 22.084756 -9.063838 0.320250 -14.260358 -2.348351 -0.511433 -1.962285 -0.000001 -0.000001 0.000000 0.000000 -0.000000 8.207793 -6.751704 -1.599554 -16.316021 -1.727668 -1.912881 45.996007 -2.367102 -0.208217 -2.482625 4.062705 -10.625558 -1.305927 -0.000005 0.000006 -0.000002 -0.000002 0.000000 
0.695681 102.455284 11.673040 -6.725486 9.806126 5.565812 -0.000004 10.181588 0.131520 12.421272 1.946531 -2.367103 1.553855 0.406075 -0.110256 1.551645 0.405513 -0.119471 0.000001 16.740379 -2.049033 2.147883 -3.100596 -0.044060 -0.000000 9.617885 1.685008 -0.275660 -4.874167 -3.884996 0.000001 22.037323 7.501097 0.000001 0.000000 0.000000 -4.569968 11.014917 -2.160884 0.054050 10.048609 18.888253 -22.208348 -6.210856 53.626182 -0.000000 16.892243 0.000009 34.248228 2.691069 8.924151 -2.464806 -1.573984 2.681844 -4.475984 -0.610259 -7.042056 12.025254 -29.216298 -3.995127 -5.197452 -7.457726 -15.184518 -0.000000 0.000000 -0.000001 -9.108283 -0.517869 2.259838 0.247389 -3.630330 16.569522 0.715668 -2.463976 32.284600 0.093026 -0.937728 11.463515 -0.000000 -0.000003 0.000003 -9.532516 -0.000054 -0.000024 0.484913 -4.251962 24.283414 0.701199 -2.402493 32.313369 0.087841 -0.941132 11.169845 -0.000003 0.000008 0.000000 -9.103613 -0.043085 -1.865134 0.581145 -4.445184 27.864342 0.728908 -2.521577 32.368256 0.090094 -0.905335 11.027867 -0.000002 0.000002 0.000002 -8.076689 -0.486718 -3.806275 0.618317 -4.515322 29.352308 0.644710 -2.430923 32.454388 0.059774 -0.907798 10.483140 0.000001 -0.000001 0.000000 4.570453 11.014707 -2.160855 1.004717 4.378655 -15.774339 21.388678 -17.572996 -47.168474 0.000329 -100.380258 0.000385 -19.802455 -13.645895 -0.164975 2.466127 -1.576207 2.681728 2.634890 0.552845 10.854931 4.347695 25.812644 15.611132 -10.012274 -13.921518 9.289638 0.000002 0.000003 0.000001 9.109316 -0.518051 2.259870 2.073757 6.783302 -45.456944 9.011941 4.931304 -122.675839 1.126968 3.449165 -36.116381 -0.000001 0.000001 -0.000003 9.533430 0.000005 0.000046 -2.065581 2.712576 -45.510930 9.013970 4.928600 -122.779877 1.110313 3.434483 -35.822174 0.000000 0.000000 -0.000005 9.104546 -0.043053 -1.865074 2.937861 7.408124 -55.135623 9.022478 4.918853 -122.860186 1.101465 3.420292 -35.678654 0.000000 0.000000 -0.000005 8.077799 -0.486897 -3.806263 -3.383278 3.654511 -59.434237 8.171818 5.143559 -111.338668 2.130996 4.314409 -48.525554 -0.000000 0.000002 0.000003 -8.207785 -6.751644 -1.599559 1.258445 -2.197735 -2.377851 20.109513 -8.114224 0.540977 -15.099786 -2.100020 -0.645859 -2.022660 -0.000000 -0.000000 0.000000 -0.000000 -0.000000 8.207791 -6.751698 -1.599553 -19.098543 -1.870227 -3.172898 39.206136 0.180487 -0.116103 -6.201177 4.101870 -11.054114 0.986909 0.000001 -0.000002 -0.000001 0.000001 0.000000 
1.117877 102.519722 14.625570 -5.975277 9.129355 5.753190 -0.000006 10.181596 0.131519 11.788528 2.965325 -2.585459 1.533078 0.568605 -0.292013 1.530875 0.566337 -0.304221 0.000002 16.740393 -2.049036 2.242675 -3.078024 -0.355652 0.000001 9.617878 1.685012 0.359644 -4.475758 -4.637751 0.000004 22.037354 7.501096 -0.000001 -0.000000 -0.000000 -4.569973 11.014921 -2.160886 0.069158 10.293504 18.304393 -22.095652 -4.088869 53.500722 0.000005 18.418742 -0.000007 33.704528 2.976689 9.145831 -2.464822 -1.573982 2.681846 -4.475990 -0.610257 -7.042058 12.025260 -29.216298 -3.995125 -5.197444 -7.457719 -15.184518 0.000006 -0.000007 0.000002 -9.108291 -0.517863 2.259840 0.247390 -3.630330 16.569523 0.715665 -2.463974 32.284607 0.093030 -0.937731 11.463522 -0.000001 -0.000000 -0.000005 -9.532516 -0.000058 -0.000023 0.484912 -4.251959 24.283409 0.701195 -2.402493 32.313379 0.087834 -0.941131 11.169849 -0.000001 0.000003 0.000005 -9.103598 -0.043075 -1.865127 0.581138 -4.445184 27.864341 0.728913 -2.521578 32.368260 0.090097 -0.905333 11.027865 0.000004 -0.000004 0.000002 -8.076680 -0.486719 -3.806276 0.618316 -4.515324 29.352308 0.644711 -2.430923 32.454392 0.059775 -0.907800 10.483144 -0.000001 0.000002 -0.000004 4.570452 11.014711 -2.160856 1.079864 4.759891 -16.540973 21.150524 -17.590269 -47.390038 0.000339 -100.318636 0.000439 -19.773780 -14.219180 -0.199702 2.466124 -1.576203 2.681741 2.634892 0.552843 10.854929 4.347701 25.812644 15.611135 -10.012275 -13.921524 9.289628 0.000002 0.000005 0.000001 9.109331 -0.518055 2.259873 2.073758 6.783301 -45.456948 9.011940 4.931301 -122.675853 1.126966 3.449164 -36.116387 -0.000000 0.000002 -0.000004 9.533427 0.000013 0.000046 -2.065581 2.712575 -45.510923 9.013971 4.928598 -122.779890 1.110312 3.434480 -35.822180 0.000000 0.000001 -0.000006 9.104538 -0.043053 -1.865070 2.937861 7.408123 -55.135623 9.022477 4.918850 -122.860200 1.101465 3.420293 -35.678651 -0.000001 0.000001 -0.000015 8.077807 -0.486889 -3.806257 -3.383278 3.654510 -59.434237 8.171819 5.143556 -111.338668 2.130995 4.314408 -48.525554 -0.000001 0.000002 0.000007 -8.207787 -6.751662 -1.599561 3.481493 -3.048063 -3.049040 17.843465 -6.792154 0.838031 -15.743060 -1.853350 -0.822819 -2.189213 -0.000001 -0.000000 -0.000000 0.000000 -0.000000 8.207792 -6.751693 -1.599561 -21.370310 -2.078731 -3.965724 31.876865 3.551200 0.266668 -11.372022 4.142698 -10.605174 3.297824 -0.000001 -0.000003 0.000001 -0.000000 0.000001 
